<?xml version="1.0" encoding="UTF-8" standalone="no"?>
<!-- Created with Inkscape (http://www.inkscape.org/) -->

<svg
   xmlns:dc="http://purl.org/dc/elements/1.1/"
   xmlns:cc="http://creativecommons.org/ns#"
   xmlns:rdf="http://www.w3.org/1999/02/22-rdf-syntax-ns#"
   xmlns:svg="http://www.w3.org/2000/svg"
   xmlns="http://www.w3.org/2000/svg"
   xmlns:xlink="http://www.w3.org/1999/xlink"
   xmlns:sodipodi="http://sodipodi.sourceforge.net/DTD/sodipodi-0.dtd"
   xmlns:inkscape="http://www.inkscape.org/namespaces/inkscape"
   width="598.84534"
   height="911.10278"
   id="svg2"
   sodipodi:version="0.32"
   inkscape:version="0.47pre4 r22446"
   sodipodi:docname="logo.svg"
   inkscape:output_extension="org.inkscape.output.svg.inkscape"
   version="1.0"
   inkscape:export-filename="/home/tr0n/Escritorio/RadioGNU/IMGs/afiche.png"
   inkscape:export-xdpi="149.99481"
   inkscape:export-ydpi="149.99481">
  <defs
     id="defs4">
    <linearGradient
       id="linearGradient2626">
      <stop
         style="stop-color:#666666;stop-opacity:0.24705882;"
         offset="0"
         id="stop2636" />
      <stop
         id="stop2640"
         offset="0.66279072"
         style="stop-color:#666666;stop-opacity:0.12156863;" />
      <stop
         style="stop-color:#666666;stop-opacity:0;"
         offset="1"
         id="stop2630" />
    </linearGradient>
    <inkscape:perspective
       sodipodi:type="inkscape:persp3d"
       inkscape:vp_x="0 : 526.18109 : 1"
       inkscape:vp_y="0 : 1000 : 0"
       inkscape:vp_z="744.09448 : 526.18109 : 1"
       inkscape:persp3d-origin="372.04724 : 350.78739 : 1"
       id="perspective10" />
    <inkscape:perspective
       id="perspective2390"
       inkscape:persp3d-origin="372.04724 : 350.78739 : 1"
       inkscape:vp_z="744.09448 : 526.18109 : 1"
       inkscape:vp_y="0 : 1000 : 0"
       inkscape:vp_x="0 : 526.18109 : 1"
       sodipodi:type="inkscape:persp3d" />
    <inkscape:perspective
       id="perspective2523"
       inkscape:persp3d-origin="372.04724 : 350.78739 : 1"
       inkscape:vp_z="744.09448 : 526.18109 : 1"
       inkscape:vp_y="0 : 1000 : 0"
       inkscape:vp_x="0 : 526.18109 : 1"
       sodipodi:type="inkscape:persp3d" />
    <inkscape:perspective
       id="perspective2438"
       inkscape:persp3d-origin="372.04724 : 350.78739 : 1"
       inkscape:vp_z="744.09448 : 526.18109 : 1"
       inkscape:vp_y="0 : 1000 : 0"
       inkscape:vp_x="0 : 526.18109 : 1"
       sodipodi:type="inkscape:persp3d" />
    <inkscape:perspective
       id="perspective2670"
       inkscape:persp3d-origin="372.04724 : 350.78739 : 1"
       inkscape:vp_z="744.09448 : 526.18109 : 1"
       inkscape:vp_y="0 : 1000 : 0"
       inkscape:vp_x="0 : 526.18109 : 1"
       sodipodi:type="inkscape:persp3d" />
    <inkscape:perspective
       sodipodi:type="inkscape:persp3d"
       inkscape:vp_x="0 : 526.18109 : 1"
       inkscape:vp_y="0 : 1000 : 0"
       inkscape:vp_z="744.09448 : 526.18109 : 1"
       inkscape:persp3d-origin="372.04724 : 350.78739 : 1"
       id="perspective2519" />
    <inkscape:perspective
       sodipodi:type="inkscape:persp3d"
       inkscape:vp_x="0 : 526.18109 : 1"
       inkscape:vp_y="0 : 1000 : 0"
       inkscape:vp_z="744.09448 : 526.18109 : 1"
       inkscape:persp3d-origin="372.04724 : 350.78739 : 1"
       id="perspective2517" />
    <inkscape:perspective
       sodipodi:type="inkscape:persp3d"
       inkscape:vp_x="0 : 526.18109 : 1"
       inkscape:vp_y="0 : 1000 : 0"
       inkscape:vp_z="744.09448 : 526.18109 : 1"
       inkscape:persp3d-origin="372.04724 : 350.78739 : 1"
       id="perspective2515" />
    <inkscape:perspective
       sodipodi:type="inkscape:persp3d"
       inkscape:vp_x="0 : 526.18109 : 1"
       inkscape:vp_y="0 : 1000 : 0"
       inkscape:vp_z="744.09448 : 526.18109 : 1"
       inkscape:persp3d-origin="372.04724 : 350.78739 : 1"
       id="perspective2513" />
    <inkscape:perspective
       id="perspective2511"
       inkscape:persp3d-origin="372.04724 : 350.78739 : 1"
       inkscape:vp_z="744.09448 : 526.18109 : 1"
       inkscape:vp_y="0 : 1000 : 0"
       inkscape:vp_x="0 : 526.18109 : 1"
       sodipodi:type="inkscape:persp3d" />
    <linearGradient
       id="linearGradient2503">
      <stop
         id="stop2505"
         offset="0"
         style="stop-color:#666666;stop-opacity:0.24705882;" />
      <stop
         style="stop-color:#666666;stop-opacity:0.12156863;"
         offset="0.66279072"
         id="stop2507" />
      <stop
         id="stop2509"
         offset="1"
         style="stop-color:#666666;stop-opacity:0;" />
    </linearGradient>
    <linearGradient
       id="linearGradient2438"
       inkscape:collect="always">
      <stop
         id="stop2440"
         offset="0"
         style="stop-color:#ffffff;stop-opacity:1;" />
      <stop
         id="stop2442"
         offset="1"
         style="stop-color:#ffffff;stop-opacity:0;" />
    </linearGradient>
    <linearGradient
       id="linearGradient2444"
       inkscape:collect="always">
      <stop
         id="stop2446"
         offset="0"
         style="stop-color:#000000;stop-opacity:1" />
      <stop
         id="stop2448"
         offset="1"
         style="stop-color:#ffffff;stop-opacity:1" />
    </linearGradient>
    <linearGradient
       inkscape:collect="always"
       xlink:href="#linearGradient2438"
       id="linearGradient2710"
       gradientUnits="userSpaceOnUse"
       gradientTransform="matrix(0.2883054,0,0,0.2883054,2365.3725,1261.9669)"
       x1="1640.7642"
       y1="-723.71271"
       x2="1177.8099"
       y2="2854.137" />
    <linearGradient
       inkscape:collect="always"
       xlink:href="#linearGradient2444"
       id="linearGradient2712"
       gradientUnits="userSpaceOnUse"
       gradientTransform="matrix(0.2883054,0,0,0.2883054,2365.3725,1261.9669)"
       x1="694.43127"
       y1="2772.8938"
       x2="687.62311"
       y2="2583.874" />
    <inkscape:perspective
       id="perspective3193"
       inkscape:persp3d-origin="0.5 : 0.33333333 : 1"
       inkscape:vp_z="1 : 0.5 : 1"
       inkscape:vp_y="0 : 1000 : 0"
       inkscape:vp_x="0 : 0.5 : 1"
       sodipodi:type="inkscape:persp3d" />
    <filter
       inkscape:collect="always"
       id="filter3986"
       x="-0.03759082"
       width="1.0751816"
       y="-0.19187297"
       height="1.3837459"
       color-interpolation-filters="sRGB">
      <feGaussianBlur
         inkscape:collect="always"
         stdDeviation="6.2657698"
         id="feGaussianBlur3988" />
    </filter>
    <inkscape:perspective
       id="perspective3148"
       inkscape:persp3d-origin="0.5 : 0.33333333 : 1"
       inkscape:vp_z="1 : 0.5 : 1"
       inkscape:vp_y="0 : 1000 : 0"
       inkscape:vp_x="0 : 0.5 : 1"
       sodipodi:type="inkscape:persp3d" />
    <inkscape:perspective
       id="perspective3263"
       inkscape:persp3d-origin="0.5 : 0.33333333 : 1"
       inkscape:vp_z="1 : 0.5 : 1"
       inkscape:vp_y="0 : 1000 : 0"
       inkscape:vp_x="0 : 0.5 : 1"
       sodipodi:type="inkscape:persp3d" />
    <inkscape:perspective
       id="perspective3288"
       inkscape:persp3d-origin="0.5 : 0.33333333 : 1"
       inkscape:vp_z="1 : 0.5 : 1"
       inkscape:vp_y="0 : 1000 : 0"
       inkscape:vp_x="0 : 0.5 : 1"
       sodipodi:type="inkscape:persp3d" />
    <inkscape:perspective
       id="perspective3375"
       inkscape:persp3d-origin="0.5 : 0.33333333 : 1"
       inkscape:vp_z="1 : 0.5 : 1"
       inkscape:vp_y="0 : 1000 : 0"
       inkscape:vp_x="0 : 0.5 : 1"
       sodipodi:type="inkscape:persp3d" />
  </defs>
  <sodipodi:namedview
     id="base"
     pagecolor="#ffffff"
     bordercolor="#666666"
     borderopacity="1.0"
     inkscape:pageopacity="0.0"
     inkscape:pageshadow="2"
     inkscape:zoom="0.66024913"
     inkscape:cx="67.701585"
     inkscape:cy="426.24916"
     inkscape:document-units="px"
     inkscape:current-layer="layer1"
     showgrid="false"
     showguides="true"
     inkscape:guide-bbox="true"
     inkscape:window-width="1680"
     inkscape:window-height="977"
     inkscape:window-x="0"
     inkscape:window-y="24"
     units="mm"
     inkscape:window-maximized="1">
    <inkscape:grid
       type="xygrid"
       id="grid2666"
       visible="true"
       enabled="true"
       empspacing="5"
       snapvisiblegridlinesonly="true" />
  </sodipodi:namedview>
  <metadata
     id="metadata7">
    <rdf:RDF>
      <cc:Work
         rdf:about="">
        <dc:format>image/svg+xml</dc:format>
        <dc:type
           rdf:resource="http://purl.org/dc/dcmitype/StillImage" />
        <dc:title></dc:title>
      </cc:Work>
    </rdf:RDF>
  </metadata>
  <g
     inkscape:label="Capa 1"
     inkscape:groupmode="layer"
     id="layer1"
     transform="translate(5107.2749,2152.5657)">
    <flowRoot
       xml:space="preserve"
       id="flowRoot2667"
       style="font-size:144px;font-style:normal;font-variant:normal;font-weight:normal;font-stretch:normal;fill:#000000;fill-opacity:1;stroke:none;font-family:Nada;-inkscape-font-specification:Nada"><flowRegion
         id="flowRegion2669"><rect
           id="rect2671"
           width="878.8327"
           height="278.80209"
           x="-557.60419"
           y="541.22498" /></flowRegion><flowPara
         id="flowPara2673" /></flowRoot>    <text
       xml:space="preserve"
       style="font-size:1119.31066895px;font-style:normal;font-variant:normal;font-weight:normal;font-stretch:normal;opacity:0.428;fill:#000000;fill-opacity:1;stroke:none;font-family:FolksBlack;-inkscape-font-specification:FolksBlack"
       x="-3987.1562"
       y="-526.47253"
       id="text3165"
       transform="matrix(0.9313734,-0.3640653,0.3640653,0.9313734,0,0)"><tspan
         sodipodi:role="line"
         x="-3987.1562"
         y="-526.47253"
         id="tspan3167" /></text>
    <text
       xml:space="preserve"
       style="font-size:1398.80175781px;font-style:normal;font-variant:normal;font-weight:normal;font-stretch:normal;opacity:0.428;fill:#000000;fill-opacity:1;stroke:none;font-family:Nada;-inkscape-font-specification:Nada"
       x="-4509.6543"
       y="1440.8679"
       id="text3205"
       transform="matrix(0.9313734,-0.3640653,0.3640653,0.9313734,0,0)"><tspan
         sodipodi:role="line"
         x="-4509.6543"
         y="1440.8679"
         id="tspan3207"
         style="font-style:normal;font-variant:normal;font-weight:bold;font-stretch:normal;fill:#000000;font-family:FolksXX;-inkscape-font-specification:FolksXX Bold" /></text>
    <flowRoot
       xml:space="preserve"
       id="flowRoot2525"
       style="font-size:144px;font-style:normal;font-variant:normal;font-weight:normal;font-stretch:normal;fill:#000000;fill-opacity:1;stroke:none;font-family:Nada;-inkscape-font-specification:Nada"
       transform="matrix(0.2883054,0,0,0.2883054,2365.3725,1261.9669)"><flowRegion
         id="flowRegion2527"><rect
           id="rect2529"
           width="878.8327"
           height="278.80209"
           x="-557.60419"
           y="541.22498" /></flowRegion><flowPara
         id="flowPara2531" /></flowRoot>    <text
       xml:space="preserve"
       style="font-size:144px;font-style:normal;font-variant:normal;font-weight:normal;font-stretch:normal;fill:#000000;fill-opacity:1;stroke:none;font-family:Nada;-inkscape-font-specification:Nada"
       x="6438.543"
       y="-147.21715"
       id="text2705"><tspan
         sodipodi:role="line"
         id="tspan2707"
         x="6438.543"
         y="-147.21715" /></text>
    <text
       xml:space="preserve"
       style="font-size:390.29946899px;font-style:normal;font-variant:normal;font-weight:normal;font-stretch:normal;text-align:end;text-anchor:end;fill:#ffffff;fill-opacity:1;stroke:none;font-family:Nada;-inkscape-font-specification:Nada"
       x="9278.2715"
       y="-1130.5054"
       id="text3276"><tspan
         sodipodi:role="line"
         x="9278.2715"
         y="-1130.5054"
         style="font-style:normal;font-variant:normal;font-weight:normal;font-stretch:normal;text-align:end;text-anchor:end;fill:#ffffff;font-family:Folks;-inkscape-font-specification:Folks"
         id="tspan3278" /></text>
    <path
       id="path2478"
       d="m -4832.316,-1405.2055 c -0.8932,-23.7001 -2.7319,-33.032 -6.7653,-34.3421 -4.4505,-1.4442 -5.0467,1.7231 -3.0336,16.1163 1.4447,10.3309 0.9379,17.9147 -1.1962,17.9147 -7.1009,0 -23.7543,-33.4331 -23.7543,-47.6889 l 0,-14.1548 70.5668,0 c 75.2925,0 75.3544,0 75.3544,19.5323 0,10.6811 -17.3683,47.0613 -26.0509,54.5691 -16.9091,14.6199 -19.3025,11.4334 -19.3025,-25.6838 0,-30.1255 -0.9199,-34.8647 -6.9996,-36.0552 -4.8839,-0.9558 -8.2792,2.2265 -11.2312,10.5273 -2.3274,6.544 -6.6747,11.8973 -9.6607,11.8973 -5.8395,0 -14.8231,14.9802 -18.831,31.3996 -1.3617,5.5772 -5.9394,14.2737 -10.1724,19.3263 l -7.6972,9.1854 -1.2263,-32.5435 z m -8.8072,-79.0653 c -33.6392,-7.4151 -38.0482,-14.1457 -35.2936,-53.8847 1.2054,-17.3981 5.5782,-41.6414 9.7155,-53.8741 9.5094,-28.1093 9.5038,-28.259 -2.4833,-66.7745 -9.056,-29.0992 -9.6515,-34.9658 -6.2588,-61.7445 2.0612,-16.2741 4.6859,-30.5086 5.8319,-31.6319 1.1457,-1.1229 -4.193,-19.339 -11.864,-40.4804 -9.271,-25.5503 -13.1035,-41.7341 -11.4298,-48.2676 5.4477,-21.2744 -17.1884,-26.8035 -53.0362,-12.9551 -26.2701,10.1481 -45.7786,9.7513 -88.7637,-1.8047 -46.2496,-12.434 -65.8962,-32.9826 -31.5344,-32.9826 7.329,0 25.24,-2.7084 39.8018,-6.0174 40.9177,-9.3008 76.4247,-12.5184 92.9031,-8.4198 13.0833,3.2553 16.9104,2.3906 32.6146,-7.3646 9.7855,-6.0794 17.8565,-13.0135 17.9357,-15.4099 0.081,-2.3959 -14.8701,-8.0474 -33.2201,-12.5582 -73.3232,-18.0237 -97.8387,-34.2683 -108.6083,-71.9689 -4.3377,-15.1821 -4.0635,-18.0733 2.4918,-26.3498 4.0498,-5.1136 14.891,-19.016 24.0921,-30.8931 9.2013,-11.8786 24.5957,-26.9006 34.2101,-33.3842 32.7426,-22.0787 53.1862,-23.8795 23.007,-2.0262 -22.807,16.5146 -44.439,37.4421 -50.6086,48.9612 -12.5748,23.4765 -4.0054,53.8959 18.3288,65.0623 24.1179,12.0595 60.4732,14.5778 192.9902,13.3668 135.9034,-1.2421 157.583,-4.1686 172.9841,-23.358 22.1491,-27.5967 11.5444,-59.5302 -30.9127,-93.086 -14.0478,-11.1017 -26.249,-22.2671 -27.1143,-24.8113 -2.9779,-8.7561 47.6927,21.1194 58.0554,34.2286 5.7059,7.2194 17.1527,21.2162 25.4377,31.1045 13.3632,15.9497 14.8628,19.8359 13.297,34.4454 -2.1536,20.0913 -15.5392,40.3228 -35.1634,53.1498 -11.1468,7.2858 -91.8126,32.8111 -103.6886,32.8111 -1.0489,0 -1.8421,2.1747 -1.7626,4.8316 0.081,2.6571 8.0059,9.7125 17.6144,15.6786 15.2269,9.455 19.242,10.3674 31.2783,7.1105 15.486,-4.1913 57.3354,-0.1459 94.1775,9.1061 12.6845,3.1848 30.0187,5.7909 38.5198,5.7909 17.3892,0 20.2057,6.1858 7.8167,17.174 -10.5085,9.3206 -68.632,25.3434 -91.9343,25.3434 -10.522,0 -24.4631,-2.7018 -30.9792,-6.0043 -6.516,-3.3029 -20.3862,-6.9957 -30.8215,-8.2069 -22.1314,-2.5687 -25.7482,0.7054 -26.3725,23.8741 -0.2291,8.5043 -6.0458,30.0736 -12.927,47.9329 -10.2233,26.5349 -11.8314,34.661 -8.7997,44.4499 8.942,28.8653 8.5801,50.2234 -1.415,83.6104 -11.3518,37.9171 -11.8056,46.4385 -3.5979,67.5168 3.3113,8.5038 7.5482,30.1281 9.4158,48.0551 5.4854,52.6627 -1.9985,59.5818 -69.0235,63.8111 -19.4469,1.2274 -40.5107,0 -54.9063,-3.1564 z"
       style="opacity:0.8;fill:#0000ff;fill-opacity:1;stroke:#000000;stroke-width:7.43699121;stroke-miterlimit:4;stroke-opacity:1;stroke-dasharray:none"
       inkscape:export-filename="/home/tr0n/Radio GNU/IMGs/logo.png"
       inkscape:export-xdpi="90"
       inkscape:export-ydpi="90" />
    <g
       id="g3113"
       transform="matrix(0.87923601,0,0,0.85139829,-4487.9331,-2115.9931)"
       inkscape:export-filename="/home/tr0n/Radio GNU/IMGs/logo.png"
       inkscape:export-xdpi="90"
       inkscape:export-ydpi="90">
      <path
         sodipodi:nodetypes="cssscscsccssccccc"
         style="fill:#000000"
         d="m -369.09313,339.47152 c -1.32092,-0.52289 -3.80662,-2.30862 -5.52379,-3.96826 -2.72817,-2.63676 -3.12214,-3.64228 -3.12214,-7.96817 0,-5.47815 2.84364,-10.71929 8.16559,-15.05001 6.17271,-5.02301 16.32305,-7.10512 20.23032,-4.14981 1.0257,0.77574 2.18492,1.42417 2.5763,1.44099 0.39127,0.0168 0.82357,-21.22409 0.96066,-47.20197 0.19231,-36.45852 0.5199,-47.32274 1.43617,-47.62806 0.65287,-0.21754 1.57836,0.6111 2.05649,1.84141 3.64099,9.36728 5.15547,11.62886 14.04839,20.97806 23.36052,24.55934 13.77116,31.88597 11.61835,27.85373 -1.79316,-3.35861 -3.99762,-6.37162 -6.49757,-8.80692 -5.19284,-5.05856 -13.93435,-10.40916 -17.00586,-10.40916 l -2.04448,0 0,37.49653 c 0,40.51396 5.9e-4,40.50834 -5.33041,47.49765 -4.35004,5.70317 -16.27767,10.16827 -21.56802,8.07399 z"
         id="path2710" />
      <path
         sodipodi:nodetypes="cssscscsccssccccc"
         style="fill:#ffcc00"
         d="m -372.28518,329.69404 c -1.32092,-0.52289 -3.80661,-2.30862 -5.52378,-3.96826 -2.72818,-2.63675 -3.12214,-3.64226 -3.12214,-7.96815 0,-5.47816 2.84363,-10.71931 8.16559,-15.05002 6.1727,-5.02301 16.32304,-7.10512 20.23031,-4.14982 1.0257,0.77574 2.18493,1.42417 2.5763,1.44099 0.39127,0.0168 0.82357,-21.22408 0.96066,-47.20196 0.19232,-36.45853 0.5199,-47.32275 1.43617,-47.62807 0.65287,-0.21754 1.57836,0.6111 2.05649,1.84142 3.64099,9.36727 5.15547,11.62885 14.04839,20.97806 23.36052,24.55933 13.77116,31.88596 11.61835,27.85372 -1.79316,-3.35861 -3.99762,-6.37162 -6.49757,-8.80692 -5.19284,-5.05856 -13.93435,-10.40915 -17.00586,-10.40915 l -2.04448,0 0,37.49653 c 0,40.51396 5.9e-4,40.50834 -5.33041,47.49765 -4.35004,5.70316 -16.27767,10.16826 -21.56802,8.07398 z"
         id="path3097" />
    </g>
    <text
       xml:space="preserve"
       style="font-size:108.03682709px;font-style:normal;font-variant:normal;font-weight:normal;font-stretch:normal;text-align:end;text-anchor:end;fill:#000000;fill-opacity:1;stroke:#000000;stroke-width:1.10157776px;stroke-linecap:butt;stroke-linejoin:miter;stroke-opacity:0.39795915;font-family:Nada;-inkscape-font-specification:Nada"
       x="-4508.2925"
       y="-1270.3337"
       id="text2484"
       transform="scale(1.003143,0.99686684)"
       inkscape:export-filename="/home/tr0n/Radio GNU/IMGs/logo.png"
       inkscape:export-xdpi="90"
       inkscape:export-ydpi="90"><tspan
         sodipodi:role="line"
         x="-4508.2925"
         y="-1270.3337"
         style="font-style:normal;font-variant:normal;font-weight:normal;font-stretch:normal;text-align:end;text-anchor:end;fill:#000000;stroke:#000000;stroke-width:1.10157776;stroke-opacity:0.39795915;font-family:Folks;-inkscape-font-specification:Folks"
         id="tspan2486">radiognu.org</tspan></text>
  </g>
</svg>
